[Header]
FileType HTR
DataType HTRS
FileVersion 1
NumSegments 22
NumFrames 5
DataFrameRate 24
EulerRotationOrder ZYX
CalibrationUnits mm
RotationUnits Degrees
GlobalAxisofGravity Y
BoneLengthAxis Y
ScaleFactor 1.0
[SegmentNames&Hierarchy]
reference	GLOBAL
Hips	reference
Spine	Hips
Spine1	Spine
Neck	Spine1
Head	Neck
LeftShoulder	Spine1
LeftArm	LeftShoulder
LeftForeArm	LeftArm
LeftHand	LeftForeArm
RightShoulder	Spine1
RightArm	RightShoulder
RightForeArm	RightArm
RightHand	RightForeArm
LeftUpLeg	Hips
LeftLeg	LeftUpLeg
LeftFoot	LeftLeg
LeftToeBase	LeftFoot
RightUpLeg	Hips
RightLeg	RightUpLeg
RightFoot	RightLeg
RightToeBase	RightFoot
[BasePosition]
reference	0	0	0	0	0	0	1
Hips	0	0	0	0	0	0	1
Spine	0	0	0	0	-0	90	1
Spine1	0	0	0	0	0	0	1
Neck	0	0	0	-7.352327771	-7.352327771	90	1
Head	0	0	0	0	-0	90	1
LeftShoulder	0	0	0	0	0	0	1
LeftArm	0	0	0	0	0	0	1
LeftForeArm	0	0	0	0	0	0	1
LeftHand	0	0	0	0	0	0	1
RightShoulder	0	0	0	0	-0	180	1
RightArm	0	0	0	0	-0	180	1
RightForeArm	0	0	0	0	-0	180	1
RightHand	0	0	0	0	-0	180	1
LeftUpLeg	0	0	0	0	-0	-90	1
LeftLeg	0	0	0	0	-0	-90	1
LeftFoot	0	0	0	66.57146043	-66.57146043	-90	1
LeftToeBase	0	0	0	0	-90	0	1
RightUpLeg	0	0	0	0	-0	-90	1
RightLeg	0	0	0	0	-0	-90	1
RightFoot	0	0	0	66.57146043	-66.57146043	-90	1
RightToeBase	0	0	0	0	-90	0	1
[reference]
20	0	0	0	0	-0	0	1.0
21	0	0	0	0	-0	0	1.0
22	0	0	0	0	-0	0	1.0
23	0	0	0	0	-0	0	1.0
24	0	0	0	0	-0	0	1.0
[Hips]
20	7.073441029	8.526586533	3.085802794	-5.924583435	-104.1525421	5.988493443	1.0
21	6.975774288	8.540819168	3.074951172	-6.647360802	-105.7011795	7.303503036	1.0
22	6.870836735	8.562931061	3.020092487	-7.149038315	-107.6538086	8.5430336	1.0
23	6.752181053	8.58126545	2.956218481	-6.684195042	-109.4040985	8.847294807	1.0
24	6.625468254	8.507650375	2.894232035	-3.129954576	-110.7159119	5.840601921	1.0
[Spine]
20	0	0.7457100153	0	-4.182624817	1.926279545	-91.16819763	1.0
21	0	0.7457100153	0	-3.525444984	1.461687803	-90.81390381	1.0
22	0	0.7457100153	0	-3.647292137	1.221536636	-90.57501221	1.0
23	0	0.7457100153	0	-3.710393429	1.023812175	-90.97195435	1.0
24	0	0.7457100153	0	-4.160516739	0.6684869528	-91.8147583	1.0
[Spine1]
20	0	2.140589952	0	9.51081562	0.5789728761	0.7134312987	1.0
21	0	2.140589952	0	8.219520569	0.4468881786	0.6819308996	1.0
22	0	2.140589952	0	7.764396667	0.3686769307	1.000825524	1.0
23	0	2.140589952	0	6.955594063	0.2887955904	1.490061045	1.0
24	0	2.140589952	0	7.02229166	0.1823842227	1.272653818	1.0
[Neck]
20	0	2.32246995	0	-13.32079124	3.304109812	-89.05140686	1.0
21	0	2.32246995	0	-13.13122654	3.112555265	-89.16403961	1.0
22	0	2.32246995	0	-13.35015488	3.180166006	-89.5062027	1.0
23	0	2.32246995	0	-13.49207783	3.434410334	-89.86640167	1.0
24	0	2.32246995	0	-13.88255501	3.679599047	-89.04455566	1.0
[Head]
20	0	1.409579992	0.1818799973	-6.193041325	-4.150624752	-91.20352173	1.0
21	0	1.409579992	0.1818799973	-5.724943638	-4.340132713	-91.20105743	1.0
22	0	1.409579992	0.1818799973	-5.413815498	-4.266492844	-91.04335022	1.0
23	0	1.409579992	0.1818799973	-5.250906467	-3.965693951	-91.26393127	1.0
24	0	1.409579992	0.1818799973	-5.738554955	-3.738525391	-91.60362244	1.0
[LeftShoulder]
20	0.3668199778	1.946700096	-0.02662999928	-14.9869442	-12.57542992	-4.606984138	1.0
21	0.3668199778	1.946700096	-0.02662999928	-14.59797192	-12.48738861	-4.203786373	1.0
22	0.3668199778	1.946700096	-0.02662999928	-13.88359928	-12.64296341	-3.711956024	1.0
23	0.3668199778	1.946700096	-0.02662999928	-13.69404125	-12.77293205	-3.324845791	1.0
24	0.3668199778	1.946700096	-0.02662999928	-14.36602974	-12.97068405	-3.398478746	1.0
[LeftArm]
20	1.140689969	0	0	42.34924698	16.24895668	-76.01711273	1.0
21	1.140689969	0	0	41.95884705	16.61727333	-76.43672943	1.0
22	1.140689969	0	0	40.66827011	16.55251503	-76.64081573	1.0
23	1.140689969	0	0	40.24410248	16.93194389	-76.57975769	1.0
24	1.140689969	0	0	41.02586365	17.54582596	-75.57971954	1.0
[LeftForeArm]
20	2.749800205	0	0	-15.17878532	-11.1472578	0.9826929569	1.0
21	2.749800205	0	0	-15.08001709	-11.38381386	0.8873705268	1.0
22	2.749800205	0	0	-14.33197975	-12.45194912	0.525582552	1.0
23	2.749800205	0	0	-13.73357677	-13.5533247	0.4008279741	1.0
24	2.749800205	0	0	-14.02302933	-14.12166214	0.7658726573	1.0
[LeftHand]
20	2.295179844	0	0	-15.07978344	-2.685535192	-0.1285026073	1.0
21	2.295179844	0	0	-14.9938221	-1.910446525	0.1366616637	1.0
22	2.295179844	0	0	-14.27242661	-2.230032921	-0.1056248248	1.0
23	2.295179844	0	0	-13.66419601	-3.040610075	-0.815497756	1.0
24	2.295179844	0	0	-13.89861584	-3.536703348	-0.9552958608	1.0
[RightShoulder]
20	-0.3601199985	1.946700096	-0.02662999928	-6.19591713	3.884411812	178.350235	1.0
21	-0.3601199985	1.946700096	-0.02662999928	-5.79160881	3.808209896	178.2956238	1.0
22	-0.3601199985	1.946700096	-0.02662999928	-5.498166084	3.823842525	178.2065735	1.0
23	-0.3601199985	1.946700096	-0.02662999928	-5.375979424	3.736395836	177.6336212	1.0
24	-0.3601199985	1.946700096	-0.02662999928	-5.512182236	3.734528303	178.4945831	1.0
[RightArm]
20	-1.140689969	0	0	55.88097	-1.861913443	-97.0838089	1.0
21	-1.140689969	0	0	55.05927658	-2.132612944	-97.37204742	1.0
22	-1.140689969	0	0	54.47586441	-2.174343824	-98.04493713	1.0
23	-1.140689969	0	0	53.18764114	-2.444947004	-98.51700592	1.0
24	-1.140689969	0	0	50.5226593	-2.466445208	-99.4957962	1.0
[RightForeArm]
20	-2.749800205	0	0	-7.238382816	10.81801033	173.7727203	1.0
21	-2.749800205	0	0	-6.976643085	11.00837326	174.0122986	1.0
22	-2.749800205	0	0	-5.786822796	11.59138584	174.5730591	1.0
23	-2.749800205	0	0	-4.259047508	12.43010998	175.4508057	1.0
24	-2.749800205	0	0	-2.979814529	13.0885334	176.6181641	1.0
[RightHand]
20	-2.295179844	0	0	-7.036829948	7.210558891	173.8347778	1.0
21	-2.295179844	0	0	-6.77916193	7.572847366	174.2609406	1.0
22	-2.295179844	0	0	-5.614366531	7.858002186	174.4966736	1.0
23	-2.295179844	0	0	-4.166947365	8.219755173	174.3870392	1.0
24	-2.295179844	0	0	-3.03149271	8.505074501	174.1026001	1.0
[LeftUpLeg]
20	0.9094099998	0	0	1.554989338	10.93031597	88.04774475	1.0
21	0.9094099998	0	0	4.488393784	12.91687012	88.88121796	1.0
22	0.9094099998	0	0	7.206389427	13.08166599	89.41384888	1.0
23	0.9094099998	0	0	9.477964401	9.742562294	89.09922028	1.0
24	0.9094099998	0	0	11.1756258	8.128131866	88.13458252	1.0
[LeftLeg]
20	0	-4.498080254	0	21.23551941	-6.165663242	85.59112549	1.0
21	0	-4.498080254	0	15.54268837	-6.065037251	86.31277466	1.0
22	0	-4.498080254	0	9.792007446	-6.565869331	86.54837799	1.0
23	0	-4.498080254	0	5.111545563	-3.640701294	86.73431396	1.0
24	0	-4.498080254	0	2.172816515	-1.851252317	86.42235565	1.0
[LeftFoot]
20	0	-3.729400158	0	-95.10797119	105.5451584	-38.87358475	1.0
21	0	-3.729400158	0	-93.55004883	105.7211227	-39.76963806	1.0
22	0	-3.729400158	0	-86.14932251	107.6186371	-34.04337692	1.0
23	0	-3.729400158	0	-81.79030609	108.5879669	-29.85122108	1.0
24	0	-3.729400158	0	-83.3050766	109.956749	-30.6259613	1.0
[LeftToeBase]
20	0	-0.5911099911	1.364109993	0	0	0	1.0
21	0	-0.5911099911	1.364109993	0	0	0	1.0
22	0	-0.5911099911	1.364109993	0	0	0	1.0
23	0	-0.5911099911	1.364109993	0	0	0	1.0
24	0	-0.5911099911	1.364109993	0	0	0	1.0
[RightUpLeg]
20	-0.9094099998	0	0	-21.6074791	-11.23052788	97.90631104	1.0
21	-0.9094099998	0	0	-22.35422897	-11.33803558	99.06313324	1.0
22	-0.9094099998	0	0	-22.14920235	-10.55936241	100.027153	1.0
23	-0.9094099998	0	0	-21.23987961	-9.149673462	100.2645416	1.0
24	-0.9094099998	0	0	-20.41556358	-7.124677181	99.20376587	1.0
[RightLeg]
20	0	-4.498080254	0	47.88793182	4.531024456	78.73995209	1.0
21	0	-4.498080254	0	39.87637329	1.532628417	80.11213684	1.0
22	0	-4.498080254	0	28.39528084	-1.682462096	82.74414063	1.0
23	0	-4.498080254	0	15.77820969	-4.343612194	86.15045929	1.0
24	0	-4.498080254	0	4.928701401	-6.362617493	88.94171906	1.0
[RightFoot]
20	0	-3.729400158	0	46.87271118	57.99481964	89.16300964	1.0
21	0	-3.729400158	0	48.27094269	59.23728943	89.1985321	1.0
22	0	-3.729400158	0	51.5907402	61.87778473	88.33540344	1.0
23	0	-3.729400158	0	61.34018326	63.11424255	92.55404663	1.0
24	0	-3.729400158	0	70.54406738	61.0901413	99.80674744	1.0
[RightToeBase]
20	0	-0.5911099911	1.364109993	0	0	0	1.0
21	0	-0.5911099911	1.364109993	0	0	0	1.0
22	0	-0.5911099911	1.364109993	0	0	0	1.0
23	0	-0.5911099911	1.364109993	0	0	0	1.0
24	0	-0.5911099911	1.364109993	0	0	0	1.0
[EndOfFile]
